HIERARCHY
ROOT mixamorig:Hips
{
	OFFSET -0.000008 104.274872 1.554316
	CHANNELS 6 Xposition Yposition Zposition Xrotation Yrotation Zrotation
	JOINT mixamorig:Spine
	{
		OFFSET -0.000005 10.181595 0.131519
		CHANNELS 6 Xposition Yposition Zposition Xrotation Yrotation Zrotation
		JOINT mixamorig:Spine1
		{
			OFFSET -0.000000 9.893959 -1.470707
			CHANNELS 6 Xposition Yposition Zposition Xrotation Yrotation Zrotation
			JOINT mixamorig:Spine2
			{
				OFFSET -0.000000 9.220757 -1.370641
				CHANNELS 6 Xposition Yposition Zposition Xrotation Yrotation Zrotation
				JOINT mixamorig:Neck
				{
					OFFSET 0.000001 16.740417 -2.049036
					CHANNELS 6 Xposition Yposition Zposition Xrotation Yrotation Zrotation
					JOINT mixamorig:Head
					{
						OFFSET 0.000000 9.617874 1.685006
						CHANNELS 6 Xposition Yposition Zposition Xrotation Yrotation Zrotation
						JOINT mixamorig:HeadTop_End
						{
							OFFSET 0.000002 22.037354 7.501101
							CHANNELS 6 Xposition Yposition Zposition Xrotation Yrotation Zrotation
							End Site
							{
								OFFSET 0.000168 2310.654297 -282.823242
							}
						}
					}
				}
				JOINT mixamorig:RightShoulder
				{
					OFFSET -4.569970 11.014908 -2.160885
					CHANNELS 6 Xposition Yposition Zposition Xrotation Yrotation Zrotation
					JOINT mixamorig:RightArm
					{
						OFFSET -10.592851 -0.524811 -2.232101
						CHANNELS 6 Xposition Yposition Zposition Xrotation Yrotation Zrotation
						JOINT mixamorig:RightForeArm
						{
							OFFSET -27.841511 0.000031 -0.000004
							CHANNELS 6 Xposition Yposition Zposition Xrotation Yrotation Zrotation
							JOINT mixamorig:RightHand
							{
								OFFSET -28.328831 -0.000015 0.000015
								CHANNELS 6 Xposition Yposition Zposition Xrotation Yrotation Zrotation
								JOINT mixamorig:RightHandThumb1
								{
									OFFSET -2.464806 -1.573990 2.681852
									CHANNELS 6 Xposition Yposition Zposition Xrotation Yrotation Zrotation
									JOINT mixamorig:RightHandThumb2
									{
										OFFSET -3.215179 -1.872803 1.924282
										CHANNELS 6 Xposition Yposition Zposition Xrotation Yrotation Zrotation
										JOINT mixamorig:RightHandThumb3
										{
											OFFSET -2.654831 -1.527969 1.512609
											CHANNELS 6 Xposition Yposition Zposition Xrotation Yrotation Zrotation
											JOINT mixamorig:RightHandThumb4
											{
												OFFSET -2.018814 -1.152008 1.108052
												CHANNELS 6 Xposition Yposition Zposition Xrotation Yrotation Zrotation
												End Site
												{
													OFFSET -188.809540 -114.533607 132.431396
												}
											}
										}
									}
								}
								JOINT mixamorig:RightHandIndex1
								{
									OFFSET -9.108284 -0.517868 2.259835
									CHANNELS 6 Xposition Yposition Zposition Xrotation Yrotation Zrotation
									JOINT mixamorig:RightHandIndex2
									{
										OFFSET -3.699989 0.000000 0.001215
										CHANNELS 6 Xposition Yposition Zposition Xrotation Yrotation Zrotation
										JOINT mixamorig:RightHandIndex3
										{
											OFFSET -2.850006 0.000031 -0.000522
											CHANNELS 6 Xposition Yposition Zposition Xrotation Yrotation Zrotation
											JOINT mixamorig:RightHandIndex4
											{
												OFFSET -2.772186 -0.000015 -0.000020
												CHANNELS 6 Xposition Yposition Zposition Xrotation Yrotation Zrotation
												End Site
												{
													OFFSET -277.218445 0.000000 -0.050231
												}
											}
										}
									}
								}
								JOINT mixamorig:RightHandMiddle1
								{
									OFFSET -9.532516 -0.000031 -0.000023
									CHANNELS 6 Xposition Yposition Zposition Xrotation Yrotation Zrotation
									JOINT mixamorig:RightHandMiddle2
									{
										OFFSET -3.700005 -0.000015 0.003713
										CHANNELS 6 Xposition Yposition Zposition Xrotation Yrotation Zrotation
										JOINT mixamorig:RightHandMiddle3
										{
											OFFSET -2.949974 0.000015 -0.002054
											CHANNELS 6 Xposition Yposition Zposition Xrotation Yrotation Zrotation
											JOINT mixamorig:RightHandMiddle4
											{
												OFFSET -2.946640 0.000000 -0.000156
												CHANNELS 6 Xposition Yposition Zposition Xrotation Yrotation Zrotation
												End Site
												{
													OFFSET -294.664337 0.000000 -0.113670
												}
											}
										}
									}
								}
								JOINT mixamorig:RightHandRing1
								{
									OFFSET -9.103600 -0.043076 -1.865134
									CHANNELS 6 Xposition Yposition Zposition Xrotation Yrotation Zrotation
									JOINT mixamorig:RightHandRing2
									{
										OFFSET -3.379288 0.000000 -0.001055
										CHANNELS 6 Xposition Yposition Zposition Xrotation Yrotation Zrotation
										JOINT mixamorig:RightHandRing3
										{
											OFFSET -2.889687 -0.000015 0.000379
											CHANNELS 6 Xposition Yposition Zposition Xrotation Yrotation Zrotation
											JOINT mixamorig:RightHandRing4
											{
												OFFSET -2.638809 -0.000015 0.000941
												CHANNELS 6 Xposition Yposition Zposition Xrotation Yrotation Zrotation
												End Site
												{
													OFFSET -263.880371 0.000000 0.516020
												}
											}
										}
									}
								}
								JOINT mixamorig:RightHandPinky1
								{
									OFFSET -8.076683 -0.486710 -3.806280
									CHANNELS 6 Xposition Yposition Zposition Xrotation Yrotation Zrotation
									JOINT mixamorig:RightHandPinky2
									{
										OFFSET -3.600014 -0.000015 -0.003747
										CHANNELS 6 Xposition Yposition Zposition Xrotation Yrotation Zrotation
										JOINT mixamorig:RightHandPinky3
										{
											OFFSET -2.099983 0.000000 -0.005739
											CHANNELS 6 Xposition Yposition Zposition Xrotation Yrotation Zrotation
											JOINT mixamorig:RightHandPinky4
											{
												OFFSET -2.115768 -0.000031 -0.003680
												CHANNELS 6 Xposition Yposition Zposition Xrotation Yrotation Zrotation
												End Site
												{
													OFFSET -211.577087 0.000000 -0.350686
												}
											}
										}
									}
								}
							}
						}
					}
				}
				JOINT mixamorig:LeftShoulder
				{
					OFFSET 4.570447 11.014725 -2.160855
					CHANNELS 6 Xposition Yposition Zposition Xrotation Yrotation Zrotation
					JOINT mixamorig:LeftArm
					{
						OFFSET 10.592371 -0.524597 -2.232119
						CHANNELS 6 Xposition Yposition Zposition Xrotation Yrotation Zrotation
						JOINT mixamorig:LeftForeArm
						{
							OFFSET 27.841532 -0.000031 0.000026
							CHANNELS 6 Xposition Yposition Zposition Xrotation Yrotation Zrotation
							JOINT mixamorig:LeftHand
							{
								OFFSET 28.328846 -0.000061 0.000022
								CHANNELS 6 Xposition Yposition Zposition Xrotation Yrotation Zrotation
								JOINT mixamorig:LeftHandThumb1
								{
									OFFSET 2.466141 -1.576172 2.681732
									CHANNELS 6 Xposition Yposition Zposition Xrotation Yrotation Zrotation
									JOINT mixamorig:LeftHandThumb2
									{
										OFFSET 3.217812 -1.872070 1.916482
										CHANNELS 6 Xposition Yposition Zposition Xrotation Yrotation Zrotation
										JOINT mixamorig:LeftHandThumb3
										{
											OFFSET 2.656029 -1.528778 1.514513
											CHANNELS 6 Xposition Yposition Zposition Xrotation Yrotation Zrotation
											JOINT mixamorig:LeftHandThumb4
											{
												OFFSET 2.020889 -1.154053 1.115139
												CHANNELS 6 Xposition Yposition Zposition Xrotation Yrotation Zrotation
												End Site
												{
													OFFSET 190.885437 -115.081749 130.048782
												}
											}
										}
									}
								}
								JOINT mixamorig:LeftHandIndex1
								{
									OFFSET 9.109314 -0.518021 2.259871
									CHANNELS 6 Xposition Yposition Zposition Xrotation Yrotation Zrotation
									JOINT mixamorig:LeftHandIndex2
									{
										OFFSET 3.699989 0.000000 -0.000322
										CHANNELS 6 Xposition Yposition Zposition Xrotation Yrotation Zrotation
										JOINT mixamorig:LeftHandIndex3
										{
											OFFSET 2.850006 0.000000 0.000352
											CHANNELS 6 Xposition Yposition Zposition Xrotation Yrotation Zrotation
											JOINT mixamorig:LeftHandIndex4
											{
												OFFSET 2.774864 -0.000031 -0.000027
												CHANNELS 6 Xposition Yposition Zposition Xrotation Yrotation Zrotation
												End Site
												{
													OFFSET 277.486267 0.000000 -0.009857
												}
											}
										}
									}
								}
								JOINT mixamorig:LeftHandMiddle1
								{
									OFFSET 9.533394 0.000061 0.000044
									CHANNELS 6 Xposition Yposition Zposition Xrotation Yrotation Zrotation
									JOINT mixamorig:LeftHandMiddle2
									{
										OFFSET 3.699989 -0.000015 -0.000231
										CHANNELS 6 Xposition Yposition Zposition Xrotation Yrotation Zrotation
										JOINT mixamorig:LeftHandMiddle3
										{
											OFFSET 2.949997 -0.000015 -0.000059
											CHANNELS 6 Xposition Yposition Zposition Xrotation Yrotation Zrotation
											JOINT mixamorig:LeftHandMiddle4
											{
												OFFSET 2.952896 0.000031 0.000063
												CHANNELS 6 Xposition Yposition Zposition Xrotation Yrotation Zrotation
												End Site
												{
													OFFSET 295.289337 0.000000 0.022810
												}
											}
										}
									}
								}
								JOINT mixamorig:LeftHandRing1
								{
									OFFSET 9.104523 -0.042999 -1.865074
									CHANNELS 6 Xposition Yposition Zposition Xrotation Yrotation Zrotation
									JOINT mixamorig:LeftHandRing2
									{
										OFFSET 3.150009 -0.000031 0.000043
										CHANNELS 6 Xposition Yposition Zposition Xrotation Yrotation Zrotation
										JOINT mixamorig:LeftHandRing3
										{
											OFFSET 2.949982 -0.000015 0.000040
											CHANNELS 6 Xposition Yposition Zposition Xrotation Yrotation Zrotation
											JOINT mixamorig:LeftHandRing4
											{
												OFFSET 2.644348 0.000000 0.000057
												CHANNELS 6 Xposition Yposition Zposition Xrotation Yrotation Zrotation
												End Site
												{
													OFFSET 264.434631 0.000000 0.012105
												}
											}
										}
									}
								}
								JOINT mixamorig:LeftHandPinky1
								{
									OFFSET 8.077789 -0.486847 -3.806259
									CHANNELS 6 Xposition Yposition Zposition Xrotation Yrotation Zrotation
									JOINT mixamorig:LeftHandPinky2
									{
										OFFSET 3.599953 0.000031 0.014727
										CHANNELS 6 Xposition Yposition Zposition Xrotation Yrotation Zrotation
										JOINT mixamorig:LeftHandPinky3
										{
											OFFSET 2.100021 0.000015 0.007705
											CHANNELS 6 Xposition Yposition Zposition Xrotation Yrotation Zrotation
											JOINT mixamorig:LeftHandPinky4
											{
												OFFSET 2.125504 0.000031 0.007517
												CHANNELS 6 Xposition Yposition Zposition Xrotation Yrotation Zrotation
												End Site
												{
													OFFSET 212.550781 0.000000 0.625752
												}
											}
										}
									}
								}
							}
						}
					}
				}
			}
		}
	}
	JOINT mixamorig:RightUpLeg
	{
		OFFSET -8.207787 -6.751648 -1.599560
		CHANNELS 6 Xposition Yposition Zposition Xrotation Yrotation Zrotation
		JOINT mixamorig:RightLeg
		{
			OFFSET -0.000002 -44.370117 0.345942
			CHANNELS 6 Xposition Yposition Zposition Xrotation Yrotation Zrotation
			JOINT mixamorig:RightFoot
			{
				OFFSET 0.000003 -44.423679 -3.043532
				CHANNELS 6 Xposition Yposition Zposition Xrotation Yrotation Zrotation
				JOINT mixamorig:RightToeBase
				{
					OFFSET -0.000002 -8.728671 10.710558
					CHANNELS 6 Xposition Yposition Zposition Xrotation Yrotation Zrotation
					JOINT mixamorig:RightToe_End
					{
						OFFSET -0.000001 -0.000679 9.278119
						CHANNELS 6 Xposition Yposition Zposition Xrotation Yrotation Zrotation
						End Site
						{
							OFFSET 0.000000 -0.067690 927.812134
						}
					}
				}
			}
		}
	}
	JOINT mixamorig:LeftUpLeg
	{
		OFFSET 8.207793 -6.751686 -1.599556
		CHANNELS 6 Xposition Yposition Zposition Xrotation Yrotation Zrotation
		JOINT mixamorig:LeftLeg
		{
			OFFSET -0.000004 -44.370014 0.346954
			CHANNELS 6 Xposition Yposition Zposition Xrotation Yrotation Zrotation
			JOINT mixamorig:LeftFoot
			{
				OFFSET -0.000001 -44.423672 -3.044401
				CHANNELS 6 Xposition Yposition Zposition Xrotation Yrotation Zrotation
				JOINT mixamorig:LeftToeBase
				{
					OFFSET -0.000002 -8.728669 10.710558
					CHANNELS 6 Xposition Yposition Zposition Xrotation Yrotation Zrotation
					JOINT mixamorig:LeftToe_End
					{
						OFFSET -0.000003 -0.000679 9.278133
						CHANNELS 6 Xposition Yposition Zposition Xrotation Yrotation Zrotation
						End Site
						{
							OFFSET 0.000000 -0.068021 927.813477
						}
					}
				}
			}
		}
	}
}
MOTION
Frames: 3
Frame Time: 0.033333
0.000006 104.270477 1.554256 0.000010 0.000003 -0.000113 -0.000005 10.181587 0.131522 0.000001 -0.000003 0.000084 -0.000000 9.893967 -1.470711 0.000001 0.000000 -0.000000 -0.000000 9.220802 -1.370642 0.000000 -0.000000 -0.000000 0.000001 16.740433 -2.049030 0.000000 -0.000000 -0.000000 0.000000 9.617859 1.685014 0.000000 0.000000 0.000000 0.000002 22.037384 7.501101 0.000000 -0.000000 0.000000 -4.569968 11.014880 -2.160881 0.000008 0.000001 -0.000038 -10.592876 -0.524759 -2.231912 74.728103 27.267606 -20.984890 -27.841539 0.000015 0.000537 -59.720640 107.519513 76.140224 -28.328825 0.000007 0.000022 -0.000323 -0.000045 0.000009 -2.464438 -1.573918 2.682384 -29.459948 -154.501734 28.529152 -3.215275 -1.872598 1.924669 160.210734 31.445986 -0.466400 -2.654933 -1.527915 1.513124 148.162185 25.145312 -51.230097 -2.018823 -1.152014 1.108059 -0.000004 0.000003 0.000004 -9.108386 -0.517558 2.260082 91.038970 17.144251 -17.501081 -3.700088 0.000308 0.001475 88.166657 14.366936 -13.895824 -2.850086 0.000360 -0.000282 88.531382 11.280117 -10.995495 -2.772172 -0.000000 -0.000022 -0.000001 0.000001 0.000000 -9.532577 0.000287 0.000222 91.003432 13.852880 -14.236855 -3.700056 0.000339 0.003949 93.042613 9.415474 -9.830089 -2.950049 0.000342 -0.001828 93.120832 9.819591 -10.359321 -2.946623 -0.000015 -0.000156 -0.000003 0.000000 -0.000001 -9.103689 -0.042734 -1.864892 90.839761 13.216658 -13.366477 -3.379288 0.000338 -0.000817 93.398814 5.503920 -5.857343 -2.889727 0.000363 0.000612 94.039677 4.542396 -4.921335 -2.638811 -0.000002 0.000940 -0.000003 -0.000002 0.000001 -8.076736 -0.486383 -3.806032 86.027134 14.192687 -13.113007 -3.600028 0.000286 -0.003512 90.528359 5.831794 -5.540012 -2.099996 0.000337 -0.005498 90.657709 3.134928 -2.957342 -2.115781 -0.000042 -0.003681 0.000002 0.000003 -0.000001 4.570446 11.014691 -2.160851 -0.000018 0.000010 -0.000021 10.592396 -0.524480 -2.232351 73.151845 -11.762839 8.742080 27.841820 0.000057 -0.000196 96.873037 -71.622088 78.271106 28.328817 -0.000029 0.000017 0.000021 -0.000088 -0.000000 2.466100 -1.576164 2.681903 -24.376964 159.058645 -41.516011 3.217862 -1.871818 1.916397 161.943949 -24.827010 30.501391 2.656103 -1.528711 1.514503 127.902491 -31.871462 60.129147 2.020891 -1.154068 1.115141 -0.000002 0.000004 0.000002 9.109361 -0.517890 2.259738 75.662063 -17.856476 13.901049 3.700056 0.000127 -0.000444 74.099076 -17.347608 13.152569 2.850054 0.000155 0.000215 70.791216 -13.469696 9.591762 2.774885 -0.000015 -0.000024 -0.000001 0.000004 0.000001 9.533447 0.000203 -0.000077 77.486918 -16.476655 13.246058 3.700066 0.000141 -0.000376 78.367057 -14.227684 11.614754 2.950049 0.000139 -0.000194 75.873313 -16.357060 12.786859 2.952863 -0.000045 0.000064 -0.000001 0.000002 0.000001 9.104578 -0.042853 -1.865226 75.898080 -14.350209 11.215522 3.150046 0.000177 -0.000113 79.948505 -11.750780 9.862871 2.950029 0.000152 -0.000066 78.400388 -12.523344 10.228935 2.644320 0.000032 0.000054 -0.000000 0.000002 -0.000001 8.077820 -0.486725 -3.806393 70.888758 -14.507395 10.770855 3.599994 0.000168 0.014564 72.251244 -12.060908 9.189759 2.100034 0.000164 0.007549 74.486491 -11.453946 9.087509 2.125502 -0.000013 0.007517 -0.000001 0.000003 0.000000 -8.207786 -6.751667 -1.599560 -0.077001 -0.000003 0.000080 -0.000002 -44.370110 0.345938 0.153719 -0.000000 -0.000000 0.000000 -44.423679 -3.043532 -0.076700 0.000000 -0.000002 -0.000006 -8.728667 10.710559 -0.000009 -0.000000 -0.000000 -0.000001 -0.000679 9.278123 0.000000 -0.000000 -0.000000 8.207792 -6.751710 -1.599556 -0.074518 -0.000003 0.000081 -0.000002 -44.370014 0.346960 0.148822 0.000002 0.000000 -0.000001 -44.423664 -3.044403 -0.074314 0.000000 -0.000002 -0.000004 -8.728671 10.710558 0.000007 -0.000000 -0.000000 0.000000 -0.000680 9.278137 -0.000000 0.000000 -0.000001 
0.000006 104.270477 1.554256 0.000010 0.000003 -0.000113 -0.000005 10.181587 0.131522 0.000001 -0.000003 0.000084 -0.000000 9.893967 -1.470711 0.000001 0.000000 -0.000000 -0.000000 9.220802 -1.370642 0.000000 -0.000000 -0.000000 0.000001 16.740433 -2.049030 0.000000 -0.000000 -0.000000 0.000000 9.617859 1.685014 0.000000 0.000000 0.000000 0.000002 22.037384 7.501101 0.000000 -0.000000 0.000000 -4.569968 11.014880 -2.160881 0.000008 0.000001 -0.000038 -10.592868 -0.524781 -2.231889 74.290786 33.010154 -25.302615 -27.841522 0.000013 0.000548 -56.384328 105.237519 70.103873 -28.328810 0.000008 0.000027 -0.000326 -0.000041 0.000002 -2.464429 -1.573785 2.682326 -46.915606 -162.210545 -7.578395 -3.215270 -1.872555 1.924639 153.451524 32.604892 11.219504 -2.654951 -1.527897 1.513073 147.099858 26.674419 -39.494739 -2.018842 -1.152020 1.108066 0.000001 -0.000004 0.000005 -9.108378 -0.517558 2.260077 88.981976 15.895107 -15.664376 -3.700068 0.000314 0.001471 87.738978 14.057401 -13.495608 -2.850084 0.000361 -0.000303 87.074851 11.180390 -10.626075 -2.772178 -0.000015 -0.000019 0.000001 0.000000 -0.000000 -9.532589 0.000281 0.000221 89.563997 14.131018 -14.163604 -3.700076 0.000331 0.003957 90.643140 11.621797 -11.656884 -2.950061 0.000329 -0.001803 93.303403 11.442728 -12.109825 -2.946625 0.000001 -0.000155 -0.000000 -0.000002 0.000000 -9.103705 -0.042771 -1.864892 89.252848 15.559448 -15.316846 -3.379310 0.000335 -0.000819 91.309992 7.888189 -8.087386 -2.889736 0.000359 0.000631 98.548927 5.737764 -6.714832 -2.638805 -0.000001 0.000943 0.000003 -0.000003 -0.000002 -8.076756 -0.486396 -3.806031 84.408741 16.103438 -14.485067 -3.600038 0.000287 -0.003530 88.720974 5.895760 -5.430443 -2.099997 0.000337 -0.005481 93.613432 2.992521 -2.962786 -2.115786 -0.000053 -0.003682 0.000004 -0.000002 -0.000002 4.570446 11.014691 -2.160851 -0.000018 0.000010 -0.000021 10.592402 -0.524483 -2.232352 71.915267 -13.082866 9.510142 27.841820 0.000055 -0.000217 100.154718 -73.348930 83.333000 28.328838 -0.000028 0.000019 0.000023 -0.000089 0.000000 2.466269 -1.576025 2.681820 5.894122 173.472393 -105.404483 3.217883 -1.871860 1.916437 166.324600 -18.234472 50.549018 2.656086 -1.528746 1.514542 130.207366 -31.515466 71.570363 2.020899 -1.154068 1.115144 0.000005 0.000006 0.000002 9.109384 -0.517894 2.259741 75.581924 -21.051908 16.387292 3.700037 0.000138 -0.000457 73.795228 -13.386849 10.083152 2.850060 0.000156 0.000210 72.233007 -9.149477 6.681665 2.774894 -0.000045 -0.000025 0.000001 -0.000003 0.000000 9.533464 0.000172 -0.000072 76.454201 -20.547372 16.243426 3.700021 0.000171 -0.000376 79.467940 -11.624097 9.670175 2.950029 0.000144 -0.000215 79.713779 -9.887092 8.262855 2.952872 -0.000031 0.000065 -0.000000 0.000003 0.000000 9.104597 -0.042881 -1.865213 76.109221 -19.496544 15.320990 3.150034 0.000181 -0.000087 81.866156 -12.542207 10.889438 2.950014 0.000175 -0.000089 82.816201 -9.146935 8.071719 2.644326 0.000031 0.000055 -0.000000 -0.000000 -0.000000 8.077860 -0.486754 -3.806410 71.861691 -20.391743 15.303770 3.599998 0.000153 0.014573 71.941549 -16.940324 12.728440 2.100028 0.000147 0.007527 73.460406 -11.366879 8.855077 2.125516 -0.000031 0.007510 0.000002 0.000004 -0.000002 -8.207786 -6.751667 -1.599560 -0.077001 -0.000003 0.000080 -0.000002 -44.370110 0.345938 0.153719 -0.000000 -0.000000 0.000000 -44.423679 -3.043532 -0.076700 0.000000 -0.000002 -0.000006 -8.728667 10.710559 -0.000009 -0.000000 -0.000000 -0.000001 -0.000679 9.278123 0.000000 -0.000000 -0.000000 8.207792 -6.751710 -1.599556 -0.074518 -0.000003 0.000081 -0.000002 -44.370014 0.346960 0.148822 0.000002 0.000000 -0.000001 -44.423664 -3.044403 -0.074314 0.000000 -0.000002 -0.000004 -8.728671 10.710558 0.000007 -0.000000 -0.000000 0.000000 -0.000680 9.278137 -0.000000 0.000000 -0.000001 
0.000006 104.270477 1.554256 0.000010 0.000003 -0.000113 -0.000005 10.181587 0.131522 0.000001 -0.000003 0.000084 -0.000000 9.893967 -1.470711 0.000001 0.000000 -0.000000 -0.000000 9.220802 -1.370642 0.000000 -0.000000 -0.000000 0.000001 16.740433 -2.049030 0.000000 -0.000000 -0.000000 0.000000 9.617859 1.685014 0.000000 0.000000 0.000000 0.000002 22.037384 7.501101 0.000000 -0.000000 0.000000 -4.569968 11.014880 -2.160881 0.000008 0.000001 -0.000038 -10.592865 -0.524794 -2.231851 74.444479 38.962630 -30.083322 -27.841536 0.000003 0.000552 -55.165204 103.165759 66.745824 -28.328808 0.000021 0.000032 -0.000322 -0.000043 0.000005 -2.464411 -1.573804 2.682345 -45.746421 -161.620936 -4.730510 -3.215275 -1.872553 1.924652 153.988705 32.240272 8.312525 -2.654948 -1.527903 1.513089 146.207002 26.846448 -39.754792 -2.018833 -1.151986 1.108065 -0.000003 0.000002 0.000002 -9.108385 -0.517547 2.260090 89.229680 16.085150 -15.919076 -3.700081 0.000309 0.001464 87.835522 14.220132 -13.675009 -2.850062 0.000362 -0.000314 87.633212 11.202964 -10.751311 -2.772181 -0.000013 -0.000022 0.000003 0.000001 0.000001 -9.532593 0.000269 0.000221 89.701701 14.828067 -14.891873 -3.700064 0.000333 0.003956 90.848811 12.338782 -12.425189 -2.950058 0.000345 -0.001822 93.977345 11.753553 -12.584968 -2.946626 0.000003 -0.000157 -0.000002 -0.000002 0.000001 -9.103684 -0.042748 -1.864869 90.070715 16.089953 -16.065291 -3.379318 0.000343 -0.000822 91.816307 8.514407 -8.805278 -2.889745 0.000347 0.000633 98.993709 5.995856 -7.069710 -2.638789 -0.000014 0.000938 -0.000003 0.000003 0.000001 -8.076745 -0.486384 -3.806033 85.407807 16.364206 -14.979148 -3.600041 0.000295 -0.003514 88.767249 6.198713 -5.729922 -2.099997 0.000340 -0.005478 93.443975 3.174218 -3.146334 -2.115773 -0.000055 -0.003682 0.000002 -0.000001 -0.000007 4.570446 11.014691 -2.160851 -0.000018 0.000010 -0.000021 10.592432 -0.524475 -2.232385 71.561128 -23.525576 17.070063 27.841822 0.000045 -0.000190 101.050709 -75.500262 86.465209 28.328846 -0.000027 0.000027 0.000022 -0.000088 -0.000000 2.466271 -1.576037 2.681825 5.490861 170.137868 -100.738071 3.217886 -1.871871 1.916427 166.417491 -18.668242 49.073150 2.656075 -1.528729 1.514516 130.107891 -31.480642 69.847017 2.020887 -1.154082 1.115153 0.000004 -0.000001 0.000004 9.109403 -0.517889 2.259749 78.751583 -21.277108 17.516869 3.700038 0.000133 -0.000474 77.096908 -12.582968 10.054575 2.850043 0.000185 0.000203 76.191088 -8.648038 6.783824 2.774887 -0.000046 -0.000027 0.000000 0.000004 -0.000000 9.533479 0.000190 -0.000078 78.920076 -20.607241 17.014411 3.700025 0.000165 -0.000381 82.038051 -10.983233 9.558793 2.950050 0.000166 -0.000209 83.438492 -9.622715 8.585999 2.952867 -0.000030 0.000066 0.000001 -0.000000 -0.000000 9.104609 -0.042867 -1.865208 78.070510 -19.694984 16.024302 3.150038 0.000182 -0.000103 83.685151 -12.408330 11.121173 2.950017 0.000175 -0.000088 85.239005 -9.358102 8.615597 2.644326 0.000031 0.000057 0.000001 -0.000001 -0.000000 8.077866 -0.486734 -3.806379 73.542614 -20.664469 15.982202 3.599998 0.000149 0.014571 73.752226 -17.181508 13.335603 2.100043 0.000156 0.007540 75.470892 -12.014589 9.687965 2.125511 -0.000015 0.007514 -0.000000 0.000001 -0.000000 -8.207786 -6.751667 -1.599560 -0.077001 -0.000003 0.000080 -0.000002 -44.370110 0.345938 0.153719 -0.000000 -0.000000 0.000000 -44.423679 -3.043532 -0.076700 0.000000 -0.000002 -0.000006 -8.728667 10.710559 -0.000009 -0.000000 -0.000000 -0.000001 -0.000679 9.278123 0.000000 -0.000000 -0.000000 8.207792 -6.751710 -1.599556 -0.074518 -0.000003 0.000081 -0.000002 -44.370014 0.346960 0.148822 0.000002 0.000000 -0.000001 -44.423664 -3.044403 -0.074314 0.000000 -0.000002 -0.000004 -8.728671 10.710558 0.000007 -0.000000 -0.000000 0.000000 -0.000680 9.278137 -0.000000 0.000000 -0.000001 
